<svg xmlns="http://www.w3.org/2000/svg" viewBox="0 0 723.1 723.1"><defs><style>.cls-1{fill:#bc002d;}</style></defs><g id="Layer_2" data-name="Layer 2"><g id="Layer_1-2" data-name="Layer 1"><g id="Mask"><path class="cls-1" d="M361.55,0C561.23,0,723.1,161.87,723.1,361.55S561.23,723.1,361.55,723.1,0,561.23,0,361.55,161.87,0,361.55,0ZM352,389.12C326.79,364.55,304.62,343,292,293.23h88.1V256.07h-87.5V206.93H254.87v49.74h-88.1v37.16h89.9a113.54,113.54,0,0,1-1.8,12.58c-12.58,49.15-27.57,80.31-88.1,110.88l12.59,37.16C236.89,423.88,266.86,385.52,280,343c12.59,32.37,34.17,58.74,58.74,82.71L352,389.12ZM468.23,268.66H417.89l-88.1,247.52h37.76l25.17-74.32H493.4l25.17,74.32h37.76Zm-62.93,136,37.76-98.88,37.76,99.48-75.52-.6Z"/></g></g></g></svg>