<svg xmlns="http://www.w3.org/2000/svg" xmlns:xlink="http://www.w3.org/1999/xlink" viewBox="0 0 789 743.08"><defs><style>.cls-1,.cls-3{fill:none;}.cls-2{fill:#bc002d;}.cls-3{stroke:#fff;stroke-miterlimit:10;stroke-width:10px;}.cls-4{clip-path:url(#clip-path);}.cls-5{opacity:0.77;}.cls-6{fill:#a2002d;opacity:0.29;}.cls-7{fill:#fff;}</style><clipPath id="clip-path" transform="translate(64.46 8.32)"><circle class="cls-1" cx="361.55" cy="361.55" r="307.1"/></clipPath></defs><g id="Layer_2" data-name="Layer 2"><g id="Layer_1-2" data-name="Layer 1"><circle class="cls-2" cx="426.01" cy="369.87" r="361.55"/><circle class="cls-3" cx="426.01" cy="369.87" r="313.61"/><g class="cls-4"><g class="cls-5"><path class="cls-6" d="M123.47,183.91a4.3,4.3,0,0,1-4.31-4.3,41.6,41.6,0,1,0-83.2,0,4.31,4.31,0,0,1-8.61,0,50.21,50.21,0,1,1,100.42,0A4.3,4.3,0,0,1,123.47,183.91Z" transform="translate(64.46 8.32)"/><path class="cls-6" d="M77.56,229.82a4.3,4.3,0,0,1-4.31-4.3,41.6,41.6,0,1,0-83.19,0,4.3,4.3,0,0,1-4.31,4.3,4.3,4.3,0,0,1-4.3-4.3,50.21,50.21,0,1,1,100.42,0A4.3,4.3,0,0,1,77.56,229.82Z" transform="translate(64.46 8.32)"/><path class="cls-6" d="M169.37,229.82a4.3,4.3,0,0,1-4.31-4.3,41.6,41.6,0,1,0-83.19,0,4.31,4.31,0,0,1-8.62,0,50.21,50.21,0,1,1,100.42,0A4.3,4.3,0,0,1,169.37,229.82Z" transform="translate(64.46 8.32)"/><path class="cls-6" d="M31.65,275.72a4.3,4.3,0,0,1-4.3-4.31,41.64,41.64,0,0,0-41.6-41.59,41.64,41.64,0,0,0-41.6,41.59,4.3,4.3,0,0,1-4.3,4.31,4.3,4.3,0,0,1-4.31-4.31A50.27,50.27,0,0,1-14.25,221.2,50.27,50.27,0,0,1,36,271.41,4.3,4.3,0,0,1,31.65,275.72Z" transform="translate(64.46 8.32)"/><path class="cls-6" d="M123.47,275.72a4.3,4.3,0,0,1-4.31-4.31,41.6,41.6,0,0,0-83.2,0,4.31,4.31,0,1,1-8.61,0,50.21,50.21,0,1,1,100.42,0A4.3,4.3,0,0,1,123.47,275.72Z" transform="translate(64.46 8.32)"/><path class="cls-6" d="M215.28,275.72a4.3,4.3,0,0,1-4.31-4.31,41.6,41.6,0,0,0-83.2,0,4.31,4.31,0,1,1-8.61,0,50.21,50.21,0,0,1,100.42,0A4.3,4.3,0,0,1,215.28,275.72Z" transform="translate(64.46 8.32)"/><path class="cls-6" d="M77.56,321.63a4.31,4.31,0,0,1-4.31-4.3,41.6,41.6,0,1,0-83.19,0,4.31,4.31,0,0,1-4.31,4.3,4.31,4.31,0,0,1-4.3-4.3,50.21,50.21,0,1,1,100.42,0A4.31,4.31,0,0,1,77.56,321.63Z" transform="translate(64.46 8.32)"/><path class="cls-6" d="M169.37,321.63a4.31,4.31,0,0,1-4.31-4.3,41.6,41.6,0,1,0-83.19,0,4.31,4.31,0,0,1-8.62,0,50.21,50.21,0,1,1,100.42,0A4.31,4.31,0,0,1,169.37,321.63Z" transform="translate(64.46 8.32)"/><path class="cls-6" d="M261.18,321.63a4.3,4.3,0,0,1-4.3-4.3,41.61,41.61,0,1,0-83.21,0,4.31,4.31,0,0,1-8.61,0,50.22,50.22,0,1,1,100.43,0A4.31,4.31,0,0,1,261.18,321.63Z" transform="translate(64.46 8.32)"/><path class="cls-6" d="M31.65,367.5a4.3,4.3,0,0,1-4.3-4.3,41.63,41.63,0,0,0-41.6-41.57,41.63,41.63,0,0,0-41.6,41.57,4.3,4.3,0,0,1-4.3,4.3,4.3,4.3,0,0,1-4.31-4.3A50.26,50.26,0,0,1-14.25,313,50.26,50.26,0,0,1,36,363.2,4.3,4.3,0,0,1,31.65,367.5Z" transform="translate(64.46 8.32)"/><path class="cls-6" d="M123.47,367.5a4.3,4.3,0,0,1-4.31-4.3,41.6,41.6,0,0,0-83.2,0,4.31,4.31,0,0,1-8.61,0,50.21,50.21,0,0,1,100.42,0A4.3,4.3,0,0,1,123.47,367.5Z" transform="translate(64.46 8.32)"/><path class="cls-6" d="M215.28,367.5a4.3,4.3,0,0,1-4.31-4.3,41.6,41.6,0,0,0-83.2,0,4.31,4.31,0,0,1-8.61,0,50.21,50.21,0,0,1,100.42,0A4.3,4.3,0,0,1,215.28,367.5Z" transform="translate(64.46 8.32)"/><path class="cls-6" d="M307.09,367.5a4.3,4.3,0,0,1-4.3-4.3,41.61,41.61,0,0,0-83.21,0,4.31,4.31,0,0,1-8.61,0,50.22,50.22,0,0,1,100.43,0A4.3,4.3,0,0,1,307.09,367.5Z" transform="translate(64.46 8.32)"/><path class="cls-6" d="M77.56,413.43a4.3,4.3,0,0,1-4.31-4.3,41.6,41.6,0,1,0-83.19,0,4.3,4.3,0,0,1-4.31,4.3,4.3,4.3,0,0,1-4.3-4.3,50.21,50.21,0,1,1,100.42,0A4.3,4.3,0,0,1,77.56,413.43Z" transform="translate(64.46 8.32)"/><path class="cls-6" d="M169.37,413.43a4.3,4.3,0,0,1-4.31-4.3,41.6,41.6,0,1,0-83.19,0,4.31,4.31,0,0,1-8.62,0,50.21,50.21,0,1,1,100.42,0A4.3,4.3,0,0,1,169.37,413.43Z" transform="translate(64.46 8.32)"/><path class="cls-6" d="M261.18,413.43a4.29,4.29,0,0,1-4.3-4.3,41.61,41.61,0,1,0-83.21,0,4.31,4.31,0,0,1-8.61,0,50.22,50.22,0,1,1,100.43,0A4.3,4.3,0,0,1,261.18,413.43Z" transform="translate(64.46 8.32)"/><path class="cls-6" d="M353,413.43a4.3,4.3,0,0,1-4.3-4.3,41.6,41.6,0,1,0-83.2,0,4.31,4.31,0,0,1-8.61,0,50.21,50.21,0,1,1,100.42,0A4.3,4.3,0,0,1,353,413.43Z" transform="translate(64.46 8.32)"/><path class="cls-6" d="M31.65,459.34a4.3,4.3,0,0,1-4.3-4.3,41.64,41.64,0,0,0-41.6-41.61A41.64,41.64,0,0,0-55.85,455a4.3,4.3,0,0,1-4.3,4.3,4.3,4.3,0,0,1-4.31-4.3,50.26,50.26,0,0,1,50.21-50.21A50.26,50.26,0,0,1,36,455,4.3,4.3,0,0,1,31.65,459.34Z" transform="translate(64.46 8.32)"/><path class="cls-6" d="M123.47,459.34a4.3,4.3,0,0,1-4.31-4.3A41.6,41.6,0,1,0,36,455a4.31,4.31,0,0,1-8.61,0,50.21,50.21,0,1,1,100.42,0A4.3,4.3,0,0,1,123.47,459.34Z" transform="translate(64.46 8.32)"/><path class="cls-6" d="M215.28,459.34A4.3,4.3,0,0,1,211,455a41.6,41.6,0,1,0-83.2,0,4.31,4.31,0,0,1-8.61,0,50.21,50.21,0,1,1,100.42,0A4.3,4.3,0,0,1,215.28,459.34Z" transform="translate(64.46 8.32)"/><path class="cls-6" d="M307.09,459.34a4.3,4.3,0,0,1-4.3-4.3,41.61,41.61,0,1,0-83.21,0,4.31,4.31,0,0,1-8.61,0,50.22,50.22,0,0,1,100.43,0A4.3,4.3,0,0,1,307.09,459.34Z" transform="translate(64.46 8.32)"/><path class="cls-6" d="M398.9,459.34a4.3,4.3,0,0,1-4.31-4.3,41.6,41.6,0,1,0-83.19,0,4.31,4.31,0,0,1-8.61,0,50.21,50.21,0,1,1,100.41,0A4.3,4.3,0,0,1,398.9,459.34Z" transform="translate(64.46 8.32)"/><path class="cls-6" d="M77.56,505.24a4.31,4.31,0,0,1-4.31-4.3,41.6,41.6,0,1,0-83.19,0,4.31,4.31,0,0,1-4.31,4.3,4.31,4.31,0,0,1-4.3-4.3,50.21,50.21,0,1,1,100.42,0A4.31,4.31,0,0,1,77.56,505.24Z" transform="translate(64.46 8.32)"/><path class="cls-6" d="M169.37,505.24a4.31,4.31,0,0,1-4.31-4.3,41.6,41.6,0,1,0-83.19,0,4.31,4.31,0,0,1-8.62,0,50.21,50.21,0,1,1,100.42,0A4.31,4.31,0,0,1,169.37,505.24Z" transform="translate(64.46 8.32)"/><path class="cls-6" d="M261.18,505.24a4.3,4.3,0,0,1-4.3-4.3,41.61,41.61,0,0,0-83.21,0,4.31,4.31,0,0,1-8.61,0,50.22,50.22,0,1,1,100.43,0A4.31,4.31,0,0,1,261.18,505.24Z" transform="translate(64.46 8.32)"/><path class="cls-6" d="M353,505.24a4.31,4.31,0,0,1-4.3-4.3,41.6,41.6,0,0,0-83.2,0,4.31,4.31,0,0,1-8.61,0,50.21,50.21,0,1,1,100.42,0A4.31,4.31,0,0,1,353,505.24Z" transform="translate(64.46 8.32)"/><path class="cls-6" d="M444.8,505.24a4.31,4.31,0,0,1-4.31-4.3,41.6,41.6,0,1,0-83.19,0,4.31,4.31,0,0,1-8.61,0,50.21,50.21,0,1,1,100.42,0A4.31,4.31,0,0,1,444.8,505.24Z" transform="translate(64.46 8.32)"/><path class="cls-6" d="M123.47,551.15a4.31,4.31,0,0,1-4.31-4.3,41.6,41.6,0,1,0-83.2,0,4.31,4.31,0,0,1-8.61,0,50.21,50.21,0,1,1,100.42,0A4.31,4.31,0,0,1,123.47,551.15Z" transform="translate(64.46 8.32)"/><path class="cls-6" d="M215.28,551.15a4.31,4.31,0,0,1-4.31-4.3,41.6,41.6,0,1,0-83.2,0,4.31,4.31,0,0,1-8.61,0,50.21,50.21,0,0,1,100.42,0A4.31,4.31,0,0,1,215.28,551.15Z" transform="translate(64.46 8.32)"/><path class="cls-6" d="M307.09,551.15a4.31,4.31,0,0,1-4.3-4.3,41.61,41.61,0,1,0-83.21,0,4.31,4.31,0,0,1-8.61,0,50.22,50.22,0,0,1,100.43,0A4.31,4.31,0,0,1,307.09,551.15Z" transform="translate(64.46 8.32)"/><path class="cls-6" d="M398.9,551.15a4.31,4.31,0,0,1-4.31-4.3,41.6,41.6,0,1,0-83.19,0,4.31,4.31,0,0,1-8.61,0,50.21,50.21,0,1,1,100.41,0A4.31,4.31,0,0,1,398.9,551.15Z" transform="translate(64.46 8.32)"/><path class="cls-6" d="M490.7,551.15a4.31,4.31,0,0,1-4.31-4.3,41.6,41.6,0,1,0-83.19,0,4.31,4.31,0,0,1-8.61,0,50.21,50.21,0,1,1,100.42,0A4.31,4.31,0,0,1,490.7,551.15Z" transform="translate(64.46 8.32)"/><path class="cls-6" d="M77.56,597.06a4.31,4.31,0,0,1-4.31-4.32,41.6,41.6,0,0,0-83.19,0,4.31,4.31,0,0,1-4.31,4.32,4.3,4.3,0,0,1-4.3-4.32,50.21,50.21,0,1,1,100.42,0A4.31,4.31,0,0,1,77.56,597.06Z" transform="translate(64.46 8.32)"/><path class="cls-6" d="M169.37,597.06a4.31,4.31,0,0,1-4.31-4.32,41.6,41.6,0,0,0-83.19,0,4.31,4.31,0,1,1-8.62,0,50.21,50.21,0,1,1,100.42,0A4.3,4.3,0,0,1,169.37,597.06Z" transform="translate(64.46 8.32)"/><path class="cls-6" d="M261.18,597.06a4.3,4.3,0,0,1-4.3-4.32,41.61,41.61,0,0,0-83.21,0,4.31,4.31,0,1,1-8.61,0,50.22,50.22,0,0,1,100.43,0A4.31,4.31,0,0,1,261.18,597.06Z" transform="translate(64.46 8.32)"/><path class="cls-6" d="M353,597.06a4.3,4.3,0,0,1-4.3-4.32,41.6,41.6,0,0,0-83.2,0,4.31,4.31,0,1,1-8.61,0,50.21,50.21,0,0,1,100.42,0A4.31,4.31,0,0,1,353,597.06Z" transform="translate(64.46 8.32)"/><path class="cls-6" d="M444.8,597.06a4.31,4.31,0,0,1-4.31-4.32,41.6,41.6,0,0,0-83.19,0,4.31,4.31,0,1,1-8.61,0,50.21,50.21,0,0,1,100.42,0A4.31,4.31,0,0,1,444.8,597.06Z" transform="translate(64.46 8.32)"/><path class="cls-6" d="M536.62,597.06a4.31,4.31,0,0,1-4.31-4.32,41.6,41.6,0,0,0-83.2,0,4.31,4.31,0,1,1-8.62,0,50.22,50.22,0,0,1,100.43,0A4.3,4.3,0,0,1,536.62,597.06Z" transform="translate(64.46 8.32)"/><path class="cls-6" d="M123.47,643a4.3,4.3,0,0,1-4.31-4.3,41.6,41.6,0,0,0-83.2,0,4.31,4.31,0,0,1-8.61,0,50.21,50.21,0,0,1,100.42,0A4.3,4.3,0,0,1,123.47,643Z" transform="translate(64.46 8.32)"/><path class="cls-6" d="M215.28,643a4.3,4.3,0,0,1-4.31-4.3,41.6,41.6,0,0,0-83.2,0,4.31,4.31,0,0,1-8.61,0,50.21,50.21,0,0,1,100.42,0A4.3,4.3,0,0,1,215.28,643Z" transform="translate(64.46 8.32)"/><path class="cls-6" d="M307.09,643a4.3,4.3,0,0,1-4.3-4.3,41.61,41.61,0,0,0-83.21,0,4.31,4.31,0,0,1-8.61,0,50.22,50.22,0,0,1,100.43,0A4.3,4.3,0,0,1,307.09,643Z" transform="translate(64.46 8.32)"/><path class="cls-6" d="M398.9,643a4.3,4.3,0,0,1-4.31-4.3,41.6,41.6,0,0,0-83.19,0,4.31,4.31,0,0,1-8.61,0,50.21,50.21,0,1,1,100.41,0A4.3,4.3,0,0,1,398.9,643Z" transform="translate(64.46 8.32)"/><path class="cls-6" d="M490.7,643a4.31,4.31,0,0,1-4.31-4.3,41.6,41.6,0,0,0-83.19,0,4.31,4.31,0,0,1-8.61,0,50.21,50.21,0,1,1,100.42,0A4.3,4.3,0,0,1,490.7,643Z" transform="translate(64.46 8.32)"/><path class="cls-6" d="M582.52,643a4.29,4.29,0,0,1-4.3-4.3,41.61,41.61,0,0,0-83.21,0,4.31,4.31,0,0,1-8.62,0,50.22,50.22,0,0,1,100.44,0A4.3,4.3,0,0,1,582.52,643Z" transform="translate(64.46 8.32)"/><path class="cls-6" d="M169.37,688.87a4.31,4.31,0,0,1-4.31-4.32,41.6,41.6,0,1,0-83.19,0,4.31,4.31,0,1,1-8.62,0,50.21,50.21,0,0,1,100.42,0A4.31,4.31,0,0,1,169.37,688.87Z" transform="translate(64.46 8.32)"/><path class="cls-6" d="M261.18,688.87a4.3,4.3,0,0,1-4.3-4.32,41.61,41.61,0,0,0-83.21,0,4.31,4.31,0,1,1-8.61,0,50.22,50.22,0,0,1,100.43,0A4.31,4.31,0,0,1,261.18,688.87Z" transform="translate(64.46 8.32)"/><path class="cls-6" d="M353,688.87a4.31,4.31,0,0,1-4.3-4.32,41.6,41.6,0,0,0-83.2,0,4.31,4.31,0,1,1-8.61,0,50.21,50.21,0,0,1,100.42,0A4.31,4.31,0,0,1,353,688.87Z" transform="translate(64.46 8.32)"/><path class="cls-6" d="M444.8,688.87a4.32,4.32,0,0,1-4.31-4.32,41.6,41.6,0,1,0-83.19,0,4.31,4.31,0,1,1-8.61,0,50.21,50.21,0,0,1,100.42,0A4.31,4.31,0,0,1,444.8,688.87Z" transform="translate(64.46 8.32)"/><path class="cls-6" d="M536.62,688.87a4.31,4.31,0,0,1-4.31-4.32,41.6,41.6,0,1,0-83.2,0,4.31,4.31,0,1,1-8.62,0,50.22,50.22,0,0,1,100.43,0A4.31,4.31,0,0,1,536.62,688.87Z" transform="translate(64.46 8.32)"/><path class="cls-6" d="M307.09,734.76a4.31,4.31,0,0,1-4.3-4.3,41.61,41.61,0,0,0-83.21,0,4.31,4.31,0,0,1-8.61,0,50.22,50.22,0,0,1,100.43,0A4.31,4.31,0,0,1,307.09,734.76Z" transform="translate(64.46 8.32)"/><path class="cls-6" d="M398.9,734.76a4.31,4.31,0,0,1-4.31-4.3,41.6,41.6,0,0,0-83.19,0,4.31,4.31,0,0,1-8.61,0,50.21,50.21,0,1,1,100.41,0A4.31,4.31,0,0,1,398.9,734.76Z" transform="translate(64.46 8.32)"/><path class="cls-6" d="M490.7,734.76a4.31,4.31,0,0,1-4.31-4.3,41.6,41.6,0,0,0-83.19,0,4.31,4.31,0,0,1-8.61,0,50.21,50.21,0,1,1,100.42,0A4.31,4.31,0,0,1,490.7,734.76Z" transform="translate(64.46 8.32)"/><path class="cls-6" d="M261.18,46.21a4.3,4.3,0,0,1-4.3-4.32,41.61,41.61,0,0,0-83.21,0,4.31,4.31,0,1,1-8.61,0,50.22,50.22,0,0,1,100.43,0A4.31,4.31,0,0,1,261.18,46.21Z" transform="translate(64.46 8.32)"/><path class="cls-6" d="M353,46.21a4.3,4.3,0,0,1-4.3-4.32,41.6,41.6,0,0,0-83.2,0,4.31,4.31,0,1,1-8.61,0,50.21,50.21,0,0,1,100.42,0A4.31,4.31,0,0,1,353,46.21Z" transform="translate(64.46 8.32)"/><path class="cls-6" d="M444.8,46.21a4.31,4.31,0,0,1-4.31-4.32,41.6,41.6,0,0,0-83.19,0,4.31,4.31,0,1,1-8.61,0,50.21,50.21,0,0,1,100.42,0A4.31,4.31,0,0,1,444.8,46.21Z" transform="translate(64.46 8.32)"/><path class="cls-6" d="M536.62,46.21a4.31,4.31,0,0,1-4.31-4.32,41.6,41.6,0,0,0-83.2,0,4.31,4.31,0,1,1-8.62,0,50.22,50.22,0,0,1,100.43,0A4.3,4.3,0,0,1,536.62,46.21Z" transform="translate(64.46 8.32)"/><path class="cls-6" d="M215.28,92.1A4.3,4.3,0,0,1,211,87.8a41.6,41.6,0,0,0-83.2,0,4.31,4.31,0,0,1-8.61,0,50.21,50.21,0,0,1,100.42,0A4.3,4.3,0,0,1,215.28,92.1Z" transform="translate(64.46 8.32)"/><path class="cls-6" d="M307.09,92.1a4.3,4.3,0,0,1-4.3-4.3,41.61,41.61,0,0,0-83.21,0,4.31,4.31,0,0,1-8.61,0,50.22,50.22,0,0,1,100.43,0A4.3,4.3,0,0,1,307.09,92.1Z" transform="translate(64.46 8.32)"/><path class="cls-6" d="M398.9,92.1a4.3,4.3,0,0,1-4.31-4.3,41.6,41.6,0,0,0-83.19,0,4.31,4.31,0,0,1-8.61,0,50.21,50.21,0,1,1,100.41,0A4.3,4.3,0,0,1,398.9,92.1Z" transform="translate(64.46 8.32)"/><path class="cls-6" d="M490.7,92.1a4.31,4.31,0,0,1-4.31-4.3,41.6,41.6,0,0,0-83.19,0,4.31,4.31,0,0,1-8.61,0A50.21,50.21,0,1,1,495,87.8,4.3,4.3,0,0,1,490.7,92.1Z" transform="translate(64.46 8.32)"/><path class="cls-6" d="M582.52,92.1a4.29,4.29,0,0,1-4.3-4.3,41.61,41.61,0,0,0-83.21,0,4.31,4.31,0,0,1-8.62,0,50.22,50.22,0,0,1,100.44,0A4.3,4.3,0,0,1,582.52,92.1Z" transform="translate(64.46 8.32)"/><path class="cls-6" d="M169.37,138a4.3,4.3,0,0,1-4.31-4.3,41.6,41.6,0,0,0-83.19,0,4.31,4.31,0,0,1-8.62,0,50.21,50.21,0,0,1,100.42,0A4.29,4.29,0,0,1,169.37,138Z" transform="translate(64.46 8.32)"/><path class="cls-6" d="M261.18,138a4.29,4.29,0,0,1-4.3-4.3,41.61,41.61,0,0,0-83.21,0,4.31,4.31,0,0,1-8.61,0,50.22,50.22,0,0,1,100.43,0A4.3,4.3,0,0,1,261.18,138Z" transform="translate(64.46 8.32)"/><path class="cls-6" d="M353,138a4.29,4.29,0,0,1-4.3-4.3,41.6,41.6,0,0,0-83.2,0,4.31,4.31,0,0,1-8.61,0,50.21,50.21,0,0,1,100.42,0A4.3,4.3,0,0,1,353,138Z" transform="translate(64.46 8.32)"/><path class="cls-6" d="M444.8,138a4.3,4.3,0,0,1-4.31-4.3,41.6,41.6,0,0,0-83.19,0,4.31,4.31,0,0,1-8.61,0,50.21,50.21,0,0,1,100.42,0A4.3,4.3,0,0,1,444.8,138Z" transform="translate(64.46 8.32)"/><path class="cls-6" d="M536.62,138a4.3,4.3,0,0,1-4.31-4.3,41.6,41.6,0,0,0-83.2,0,4.31,4.31,0,0,1-8.62,0,50.22,50.22,0,0,1,100.43,0A4.29,4.29,0,0,1,536.62,138Z" transform="translate(64.46 8.32)"/><path class="cls-6" d="M628.42,138a4.3,4.3,0,0,1-4.31-4.3,41.6,41.6,0,0,0-83.19,0,4.31,4.31,0,0,1-8.61,0,50.21,50.21,0,0,1,100.42,0A4.3,4.3,0,0,1,628.42,138Z" transform="translate(64.46 8.32)"/><path class="cls-6" d="M215.28,183.91a4.3,4.3,0,0,1-4.31-4.3,41.6,41.6,0,1,0-83.2,0,4.31,4.31,0,0,1-8.61,0,50.21,50.21,0,1,1,100.42,0A4.3,4.3,0,0,1,215.28,183.91Z" transform="translate(64.46 8.32)"/><path class="cls-6" d="M307.09,183.91a4.3,4.3,0,0,1-4.3-4.3,41.61,41.61,0,1,0-83.21,0,4.31,4.31,0,0,1-8.61,0,50.22,50.22,0,1,1,100.43,0A4.3,4.3,0,0,1,307.09,183.91Z" transform="translate(64.46 8.32)"/><path class="cls-6" d="M398.9,183.91a4.3,4.3,0,0,1-4.31-4.3,41.6,41.6,0,1,0-83.19,0,4.31,4.31,0,0,1-8.61,0,50.21,50.21,0,1,1,100.41,0A4.3,4.3,0,0,1,398.9,183.91Z" transform="translate(64.46 8.32)"/><path class="cls-6" d="M490.7,183.91a4.31,4.31,0,0,1-4.31-4.3,41.6,41.6,0,1,0-83.19,0,4.31,4.31,0,0,1-8.61,0,50.21,50.21,0,1,1,100.42,0A4.3,4.3,0,0,1,490.7,183.91Z" transform="translate(64.46 8.32)"/><path class="cls-6" d="M582.52,183.91a4.29,4.29,0,0,1-4.3-4.3,41.61,41.61,0,1,0-83.21,0,4.31,4.31,0,0,1-8.62,0,50.22,50.22,0,1,1,100.44,0A4.3,4.3,0,0,1,582.52,183.91Z" transform="translate(64.46 8.32)"/><path class="cls-6" d="M674.33,183.91a4.3,4.3,0,0,1-4.31-4.3,41.6,41.6,0,1,0-83.19,0,4.31,4.31,0,0,1-8.61,0,50.21,50.21,0,1,1,100.41,0A4.3,4.3,0,0,1,674.33,183.91Z" transform="translate(64.46 8.32)"/><path class="cls-6" d="M261.18,229.82a4.29,4.29,0,0,1-4.3-4.3,41.61,41.61,0,1,0-83.21,0,4.31,4.31,0,0,1-8.61,0,50.22,50.22,0,0,1,100.43,0A4.3,4.3,0,0,1,261.18,229.82Z" transform="translate(64.46 8.32)"/><path class="cls-6" d="M353,229.82a4.3,4.3,0,0,1-4.3-4.3,41.6,41.6,0,1,0-83.2,0,4.31,4.31,0,0,1-8.61,0,50.21,50.21,0,0,1,100.42,0A4.3,4.3,0,0,1,353,229.82Z" transform="translate(64.46 8.32)"/><path class="cls-6" d="M444.8,229.82a4.31,4.31,0,0,1-4.31-4.3,41.6,41.6,0,1,0-83.19,0,4.31,4.31,0,0,1-8.61,0,50.21,50.21,0,0,1,100.42,0A4.3,4.3,0,0,1,444.8,229.82Z" transform="translate(64.46 8.32)"/><path class="cls-6" d="M536.62,229.82a4.3,4.3,0,0,1-4.31-4.3,41.6,41.6,0,1,0-83.2,0,4.31,4.31,0,0,1-8.62,0,50.22,50.22,0,0,1,100.43,0A4.3,4.3,0,0,1,536.62,229.82Z" transform="translate(64.46 8.32)"/><path class="cls-6" d="M628.42,229.82a4.3,4.3,0,0,1-4.31-4.3,41.6,41.6,0,1,0-83.19,0,4.31,4.31,0,0,1-8.61,0,50.21,50.21,0,0,1,100.42,0A4.31,4.31,0,0,1,628.42,229.82Z" transform="translate(64.46 8.32)"/><path class="cls-6" d="M720.22,229.82a4.29,4.29,0,0,1-4.3-4.3,41.6,41.6,0,1,0-83.19,0,4.31,4.31,0,0,1-8.62,0,50.22,50.22,0,0,1,100.43,0A4.3,4.3,0,0,1,720.22,229.82Z" transform="translate(64.46 8.32)"/><path class="cls-6" d="M307.09,275.72a4.3,4.3,0,0,1-4.3-4.31,41.61,41.61,0,0,0-83.21,0,4.31,4.31,0,1,1-8.61,0,50.22,50.22,0,0,1,100.43,0A4.3,4.3,0,0,1,307.09,275.72Z" transform="translate(64.46 8.32)"/><path class="cls-6" d="M398.9,275.72a4.3,4.3,0,0,1-4.31-4.31,41.6,41.6,0,0,0-83.19,0,4.31,4.31,0,1,1-8.61,0,50.21,50.21,0,1,1,100.41,0A4.3,4.3,0,0,1,398.9,275.72Z" transform="translate(64.46 8.32)"/><path class="cls-6" d="M490.7,275.72a4.3,4.3,0,0,1-4.31-4.31,41.6,41.6,0,0,0-83.19,0,4.31,4.31,0,1,1-8.61,0,50.21,50.21,0,1,1,100.42,0A4.3,4.3,0,0,1,490.7,275.72Z" transform="translate(64.46 8.32)"/><path class="cls-6" d="M582.52,275.72a4.29,4.29,0,0,1-4.3-4.31,41.61,41.61,0,0,0-83.21,0,4.31,4.31,0,0,1-8.62,0,50.22,50.22,0,0,1,100.44,0A4.3,4.3,0,0,1,582.52,275.72Z" transform="translate(64.46 8.32)"/><path class="cls-6" d="M674.33,275.72a4.3,4.3,0,0,1-4.31-4.31,41.6,41.6,0,0,0-83.19,0,4.31,4.31,0,1,1-8.61,0,50.21,50.21,0,1,1,100.41,0A4.3,4.3,0,0,1,674.33,275.72Z" transform="translate(64.46 8.32)"/><path class="cls-6" d="M353,321.63a4.31,4.31,0,0,1-4.3-4.3,41.6,41.6,0,1,0-83.2,0,4.31,4.31,0,0,1-8.61,0,50.21,50.21,0,1,1,100.42,0A4.31,4.31,0,0,1,353,321.63Z" transform="translate(64.46 8.32)"/><path class="cls-6" d="M444.8,321.63a4.31,4.31,0,0,1-4.31-4.3,41.6,41.6,0,1,0-83.19,0,4.31,4.31,0,0,1-8.61,0,50.21,50.21,0,1,1,100.42,0A4.31,4.31,0,0,1,444.8,321.63Z" transform="translate(64.46 8.32)"/><path class="cls-6" d="M536.62,321.63a4.31,4.31,0,0,1-4.31-4.3,41.6,41.6,0,1,0-83.2,0,4.31,4.31,0,0,1-8.62,0,50.22,50.22,0,1,1,100.43,0A4.31,4.31,0,0,1,536.62,321.63Z" transform="translate(64.46 8.32)"/><path class="cls-6" d="M628.42,321.63a4.31,4.31,0,0,1-4.31-4.3,41.6,41.6,0,1,0-83.19,0,4.31,4.31,0,0,1-8.61,0,50.21,50.21,0,1,1,100.42,0A4.31,4.31,0,0,1,628.42,321.63Z" transform="translate(64.46 8.32)"/><path class="cls-6" d="M720.22,321.63a4.3,4.3,0,0,1-4.3-4.3,41.6,41.6,0,1,0-83.19,0,4.31,4.31,0,0,1-8.62,0,50.22,50.22,0,1,1,100.43,0A4.31,4.31,0,0,1,720.22,321.63Z" transform="translate(64.46 8.32)"/><path class="cls-6" d="M398.9,367.5a4.3,4.3,0,0,1-4.31-4.3,41.6,41.6,0,0,0-83.19,0,4.31,4.31,0,0,1-8.61,0,50.21,50.21,0,0,1,100.41,0A4.3,4.3,0,0,1,398.9,367.5Z" transform="translate(64.46 8.32)"/><path class="cls-6" d="M490.7,367.5a4.31,4.31,0,0,1-4.31-4.3,41.6,41.6,0,0,0-83.19,0,4.31,4.31,0,0,1-8.61,0,50.21,50.21,0,0,1,100.42,0A4.3,4.3,0,0,1,490.7,367.5Z" transform="translate(64.46 8.32)"/><path class="cls-6" d="M582.52,367.5a4.29,4.29,0,0,1-4.3-4.3,41.61,41.61,0,0,0-83.21,0,4.31,4.31,0,0,1-8.62,0,50.22,50.22,0,0,1,100.44,0A4.3,4.3,0,0,1,582.52,367.5Z" transform="translate(64.46 8.32)"/><path class="cls-6" d="M674.33,367.5a4.3,4.3,0,0,1-4.31-4.3,41.6,41.6,0,0,0-83.19,0,4.31,4.31,0,0,1-8.61,0,50.21,50.21,0,0,1,100.41,0A4.3,4.3,0,0,1,674.33,367.5Z" transform="translate(64.46 8.32)"/><path class="cls-6" d="M444.8,413.43a4.31,4.31,0,0,1-4.31-4.3,41.6,41.6,0,1,0-83.19,0,4.31,4.31,0,0,1-8.61,0,50.21,50.21,0,1,1,100.42,0A4.3,4.3,0,0,1,444.8,413.43Z" transform="translate(64.46 8.32)"/><path class="cls-6" d="M536.62,413.43a4.3,4.3,0,0,1-4.31-4.3,41.6,41.6,0,1,0-83.2,0,4.31,4.31,0,0,1-8.62,0,50.22,50.22,0,1,1,100.43,0A4.3,4.3,0,0,1,536.62,413.43Z" transform="translate(64.46 8.32)"/><path class="cls-6" d="M628.42,413.43a4.3,4.3,0,0,1-4.31-4.3,41.6,41.6,0,1,0-83.19,0,4.31,4.31,0,0,1-8.61,0,50.21,50.21,0,1,1,100.42,0A4.31,4.31,0,0,1,628.42,413.43Z" transform="translate(64.46 8.32)"/><path class="cls-6" d="M720.22,413.43a4.29,4.29,0,0,1-4.3-4.3,41.6,41.6,0,1,0-83.19,0,4.31,4.31,0,0,1-8.62,0,50.22,50.22,0,1,1,100.43,0A4.3,4.3,0,0,1,720.22,413.43Z" transform="translate(64.46 8.32)"/><path class="cls-6" d="M490.7,459.34a4.31,4.31,0,0,1-4.31-4.3,41.6,41.6,0,1,0-83.19,0,4.31,4.31,0,0,1-8.61,0A50.21,50.21,0,1,1,495,455,4.3,4.3,0,0,1,490.7,459.34Z" transform="translate(64.46 8.32)"/><path class="cls-6" d="M582.52,459.34a4.29,4.29,0,0,1-4.3-4.3A41.61,41.61,0,1,0,495,455a4.31,4.31,0,0,1-8.62,0,50.22,50.22,0,0,1,100.44,0A4.3,4.3,0,0,1,582.52,459.34Z" transform="translate(64.46 8.32)"/><path class="cls-6" d="M674.33,459.34A4.3,4.3,0,0,1,670,455a41.6,41.6,0,1,0-83.19,0,4.31,4.31,0,0,1-8.61,0,50.21,50.21,0,1,1,100.41,0A4.3,4.3,0,0,1,674.33,459.34Z" transform="translate(64.46 8.32)"/><path class="cls-6" d="M536.62,505.24a4.31,4.31,0,0,1-4.31-4.3,41.6,41.6,0,1,0-83.2,0,4.31,4.31,0,0,1-8.62,0,50.22,50.22,0,1,1,100.43,0A4.31,4.31,0,0,1,536.62,505.24Z" transform="translate(64.46 8.32)"/><path class="cls-6" d="M628.42,505.24a4.31,4.31,0,0,1-4.31-4.3,41.6,41.6,0,1,0-83.19,0,4.31,4.31,0,0,1-8.61,0,50.21,50.21,0,1,1,100.42,0A4.31,4.31,0,0,1,628.42,505.24Z" transform="translate(64.46 8.32)"/><path class="cls-6" d="M720.22,505.24a4.3,4.3,0,0,1-4.3-4.3,41.6,41.6,0,1,0-83.19,0,4.31,4.31,0,0,1-8.62,0,50.22,50.22,0,1,1,100.43,0A4.31,4.31,0,0,1,720.22,505.24Z" transform="translate(64.46 8.32)"/><path class="cls-6" d="M582.52,551.15a4.3,4.3,0,0,1-4.3-4.3,41.61,41.61,0,1,0-83.21,0,4.31,4.31,0,0,1-8.62,0,50.22,50.22,0,0,1,100.44,0A4.31,4.31,0,0,1,582.52,551.15Z" transform="translate(64.46 8.32)"/><path class="cls-6" d="M674.33,551.15a4.31,4.31,0,0,1-4.31-4.3,41.6,41.6,0,1,0-83.19,0,4.31,4.31,0,0,1-8.61,0,50.21,50.21,0,1,1,100.41,0A4.31,4.31,0,0,1,674.33,551.15Z" transform="translate(64.46 8.32)"/><path class="cls-6" d="M628.42,597.06a4.31,4.31,0,0,1-4.31-4.32,41.6,41.6,0,0,0-83.19,0,4.31,4.31,0,1,1-8.61,0,50.21,50.21,0,0,1,100.42,0A4.31,4.31,0,0,1,628.42,597.06Z" transform="translate(64.46 8.32)"/></g></g><path class="cls-7" d="M352,389.12C326.79,364.55,304.62,343,292,293.23h88.1V256.07h-87.5V206.93H254.87v49.74h-88.1v37.16h89.9a113.54,113.54,0,0,1-1.8,12.58c-12.58,49.15-27.57,80.31-88.1,110.88l12.59,37.16C236.89,423.88,266.86,385.52,280,343c12.59,32.37,34.17,58.74,58.74,82.71L352,389.12Z" transform="translate(64.46 8.32)"/><path class="cls-7" d="M468.23,268.66H417.89l-88.1,247.52h37.76l25.17-74.32H493.4l25.17,74.32h37.76Zm-62.93,136,37.76-98.88,37.76,99.48-75.52-.6Z" transform="translate(64.46 8.32)"/></g></g></svg>